<mxfile host="Electron" agent="Mozilla/5.0 (Windows NT 10.0; Win64; x64) AppleWebKit/537.36 (KHTML, like Gecko) draw.io/24.7.8 Chrome/128.0.6613.36 Electron/32.0.1 Safari/537.36" version="24.7.8">
  <diagram name="Page-1" id="jnCkXLoFDYFhxXH_N0Sx">
    <mxGraphModel dx="1607" dy="681" grid="1" gridSize="10" guides="1" tooltips="1" connect="1" arrows="1" fold="1" page="1" pageScale="1" pageWidth="850" pageHeight="1100" math="0" shadow="0">
      <root>
        <mxCell id="0" />
        <mxCell id="1" parent="0" />
        <mxCell id="KPl6-Z8b2giDErf2pCn6-1" value="socket()" style="rounded=0;whiteSpace=wrap;html=1;fontSize=14;" parent="1" vertex="1">
          <mxGeometry x="180" y="160" width="90" height="30" as="geometry" />
        </mxCell>
        <mxCell id="KPl6-Z8b2giDErf2pCn6-2" value="" style="endArrow=classic;html=1;rounded=0;exitX=0.5;exitY=1;exitDx=0;exitDy=0;" parent="1" source="KPl6-Z8b2giDErf2pCn6-1" edge="1">
          <mxGeometry width="50" height="50" relative="1" as="geometry">
            <mxPoint x="250" y="280" as="sourcePoint" />
            <mxPoint x="225" y="210" as="targetPoint" />
          </mxGeometry>
        </mxCell>
        <mxCell id="KPl6-Z8b2giDErf2pCn6-3" value="bind()" style="rounded=0;whiteSpace=wrap;html=1;fontSize=14;" parent="1" vertex="1">
          <mxGeometry x="180" y="210" width="90" height="30" as="geometry" />
        </mxCell>
        <mxCell id="KPl6-Z8b2giDErf2pCn6-4" value="" style="endArrow=classic;html=1;rounded=0;exitX=0.5;exitY=1;exitDx=0;exitDy=0;" parent="1" source="KPl6-Z8b2giDErf2pCn6-3" edge="1">
          <mxGeometry width="50" height="50" relative="1" as="geometry">
            <mxPoint x="250" y="330" as="sourcePoint" />
            <mxPoint x="225" y="260" as="targetPoint" />
          </mxGeometry>
        </mxCell>
        <mxCell id="KPl6-Z8b2giDErf2pCn6-5" value="listen()" style="rounded=0;whiteSpace=wrap;html=1;fontSize=14;" parent="1" vertex="1">
          <mxGeometry x="180" y="260" width="90" height="30" as="geometry" />
        </mxCell>
        <mxCell id="KPl6-Z8b2giDErf2pCn6-6" value="" style="endArrow=classic;html=1;rounded=0;exitX=0.5;exitY=1;exitDx=0;exitDy=0;" parent="1" source="KPl6-Z8b2giDErf2pCn6-5" edge="1">
          <mxGeometry width="50" height="50" relative="1" as="geometry">
            <mxPoint x="250" y="380" as="sourcePoint" />
            <mxPoint x="225" y="310" as="targetPoint" />
          </mxGeometry>
        </mxCell>
        <mxCell id="KPl6-Z8b2giDErf2pCn6-7" value="accept()" style="rounded=0;whiteSpace=wrap;html=1;fontSize=14;" parent="1" vertex="1">
          <mxGeometry x="180" y="310" width="90" height="30" as="geometry" />
        </mxCell>
        <mxCell id="KPl6-Z8b2giDErf2pCn6-8" value="" style="endArrow=classic;html=1;rounded=0;exitX=0.5;exitY=1;exitDx=0;exitDy=0;entryX=0.5;entryY=0;entryDx=0;entryDy=0;" parent="1" source="KPl6-Z8b2giDErf2pCn6-7" target="KPl6-Z8b2giDErf2pCn6-9" edge="1">
          <mxGeometry width="50" height="50" relative="1" as="geometry">
            <mxPoint x="250" y="430" as="sourcePoint" />
            <mxPoint x="225" y="360" as="targetPoint" />
          </mxGeometry>
        </mxCell>
        <mxCell id="KPl6-Z8b2giDErf2pCn6-26" value="blocks until connection&lt;div&gt;from client&lt;/div&gt;" style="edgeLabel;html=1;align=center;verticalAlign=middle;resizable=0;points=[];" parent="KPl6-Z8b2giDErf2pCn6-8" vertex="1" connectable="0">
          <mxGeometry x="-0.281" relative="1" as="geometry">
            <mxPoint as="offset" />
          </mxGeometry>
        </mxCell>
        <mxCell id="KPl6-Z8b2giDErf2pCn6-9" value="read()" style="rounded=0;whiteSpace=wrap;html=1;fontSize=14;" parent="1" vertex="1">
          <mxGeometry x="180" y="400" width="90" height="30" as="geometry" />
        </mxCell>
        <mxCell id="KPl6-Z8b2giDErf2pCn6-10" value="" style="endArrow=classic;html=1;rounded=0;exitX=0.5;exitY=1;exitDx=0;exitDy=0;entryX=0.5;entryY=0;entryDx=0;entryDy=0;" parent="1" source="KPl6-Z8b2giDErf2pCn6-9" target="KPl6-Z8b2giDErf2pCn6-11" edge="1">
          <mxGeometry width="50" height="50" relative="1" as="geometry">
            <mxPoint x="250" y="520" as="sourcePoint" />
            <mxPoint x="225" y="450" as="targetPoint" />
          </mxGeometry>
        </mxCell>
        <mxCell id="KPl6-Z8b2giDErf2pCn6-37" value="do something" style="edgeLabel;html=1;align=center;verticalAlign=middle;resizable=0;points=[];" parent="KPl6-Z8b2giDErf2pCn6-10" vertex="1" connectable="0">
          <mxGeometry x="-0.1492" y="-1" relative="1" as="geometry">
            <mxPoint as="offset" />
          </mxGeometry>
        </mxCell>
        <mxCell id="KPl6-Z8b2giDErf2pCn6-11" value="write()" style="rounded=0;whiteSpace=wrap;html=1;fontSize=14;" parent="1" vertex="1">
          <mxGeometry x="180" y="460" width="90" height="30" as="geometry" />
        </mxCell>
        <mxCell id="KPl6-Z8b2giDErf2pCn6-12" value="" style="endArrow=classic;html=1;rounded=0;exitX=0.5;exitY=1;exitDx=0;exitDy=0;" parent="1" source="KPl6-Z8b2giDErf2pCn6-11" edge="1">
          <mxGeometry width="50" height="50" relative="1" as="geometry">
            <mxPoint x="250" y="580" as="sourcePoint" />
            <mxPoint x="225" y="510" as="targetPoint" />
          </mxGeometry>
        </mxCell>
        <mxCell id="KPl6-Z8b2giDErf2pCn6-13" value="read()" style="rounded=0;whiteSpace=wrap;html=1;fontSize=14;" parent="1" vertex="1">
          <mxGeometry x="180" y="510" width="90" height="30" as="geometry" />
        </mxCell>
        <mxCell id="KPl6-Z8b2giDErf2pCn6-14" value="" style="endArrow=classic;html=1;rounded=0;exitX=0.5;exitY=1;exitDx=0;exitDy=0;" parent="1" source="KPl6-Z8b2giDErf2pCn6-13" edge="1">
          <mxGeometry width="50" height="50" relative="1" as="geometry">
            <mxPoint x="250" y="630" as="sourcePoint" />
            <mxPoint x="225" y="560" as="targetPoint" />
          </mxGeometry>
        </mxCell>
        <mxCell id="KPl6-Z8b2giDErf2pCn6-15" value="close()" style="rounded=0;whiteSpace=wrap;html=1;fontSize=14;" parent="1" vertex="1">
          <mxGeometry x="180" y="560" width="90" height="30" as="geometry" />
        </mxCell>
        <mxCell id="KPl6-Z8b2giDErf2pCn6-17" value="socket()" style="rounded=0;whiteSpace=wrap;html=1;fontSize=14;" parent="1" vertex="1">
          <mxGeometry x="-40" y="320" width="90" height="30" as="geometry" />
        </mxCell>
        <mxCell id="KPl6-Z8b2giDErf2pCn6-18" value="" style="endArrow=classic;html=1;rounded=0;exitX=0.5;exitY=1;exitDx=0;exitDy=0;" parent="1" source="KPl6-Z8b2giDErf2pCn6-17" edge="1">
          <mxGeometry width="50" height="50" relative="1" as="geometry">
            <mxPoint x="30" y="440" as="sourcePoint" />
            <mxPoint x="5" y="370" as="targetPoint" />
          </mxGeometry>
        </mxCell>
        <mxCell id="KPl6-Z8b2giDErf2pCn6-19" value="connect()" style="rounded=0;whiteSpace=wrap;html=1;fontSize=14;" parent="1" vertex="1">
          <mxGeometry x="-40" y="370" width="90" height="30" as="geometry" />
        </mxCell>
        <mxCell id="KPl6-Z8b2giDErf2pCn6-20" value="" style="endArrow=classic;html=1;rounded=0;exitX=0.5;exitY=1;exitDx=0;exitDy=0;" parent="1" source="KPl6-Z8b2giDErf2pCn6-19" edge="1">
          <mxGeometry width="50" height="50" relative="1" as="geometry">
            <mxPoint x="30" y="490" as="sourcePoint" />
            <mxPoint x="5" y="420" as="targetPoint" />
          </mxGeometry>
        </mxCell>
        <mxCell id="KPl6-Z8b2giDErf2pCn6-21" value="write()" style="rounded=0;whiteSpace=wrap;html=1;fontSize=14;" parent="1" vertex="1">
          <mxGeometry x="-40" y="420" width="90" height="30" as="geometry" />
        </mxCell>
        <mxCell id="KPl6-Z8b2giDErf2pCn6-22" value="" style="endArrow=classic;html=1;rounded=0;exitX=0.5;exitY=1;exitDx=0;exitDy=0;" parent="1" source="KPl6-Z8b2giDErf2pCn6-21" edge="1">
          <mxGeometry width="50" height="50" relative="1" as="geometry">
            <mxPoint x="30" y="540" as="sourcePoint" />
            <mxPoint x="5" y="470" as="targetPoint" />
          </mxGeometry>
        </mxCell>
        <mxCell id="KPl6-Z8b2giDErf2pCn6-23" value="read()" style="rounded=0;whiteSpace=wrap;html=1;fontSize=14;" parent="1" vertex="1">
          <mxGeometry x="-40" y="470" width="90" height="30" as="geometry" />
        </mxCell>
        <mxCell id="KPl6-Z8b2giDErf2pCn6-24" value="" style="endArrow=classic;html=1;rounded=0;exitX=0.5;exitY=1;exitDx=0;exitDy=0;" parent="1" source="KPl6-Z8b2giDErf2pCn6-23" edge="1">
          <mxGeometry width="50" height="50" relative="1" as="geometry">
            <mxPoint x="30" y="590" as="sourcePoint" />
            <mxPoint x="5" y="520" as="targetPoint" />
          </mxGeometry>
        </mxCell>
        <mxCell id="KPl6-Z8b2giDErf2pCn6-25" value="close()" style="rounded=0;whiteSpace=wrap;html=1;fontSize=14;" parent="1" vertex="1">
          <mxGeometry x="-40" y="520" width="90" height="30" as="geometry" />
        </mxCell>
        <mxCell id="KPl6-Z8b2giDErf2pCn6-27" value="" style="endArrow=classic;startArrow=classic;html=1;rounded=0;exitX=1;exitY=0.5;exitDx=0;exitDy=0;" parent="1" source="KPl6-Z8b2giDErf2pCn6-19" edge="1">
          <mxGeometry width="50" height="50" relative="1" as="geometry">
            <mxPoint x="50" y="390" as="sourcePoint" />
            <mxPoint x="224" y="383" as="targetPoint" />
          </mxGeometry>
        </mxCell>
        <mxCell id="KPl6-Z8b2giDErf2pCn6-28" value="TCP connection&amp;nbsp;&lt;div&gt;establishment&lt;/div&gt;" style="edgeLabel;html=1;align=center;verticalAlign=middle;resizable=0;points=[];" parent="KPl6-Z8b2giDErf2pCn6-27" vertex="1" connectable="0">
          <mxGeometry x="-0.322" y="-1" relative="1" as="geometry">
            <mxPoint x="21" as="offset" />
          </mxGeometry>
        </mxCell>
        <mxCell id="KPl6-Z8b2giDErf2pCn6-29" value="" style="endArrow=classic;html=1;rounded=0;entryX=0;entryY=0.5;entryDx=0;entryDy=0;" parent="1" target="KPl6-Z8b2giDErf2pCn6-9" edge="1">
          <mxGeometry width="50" height="50" relative="1" as="geometry">
            <mxPoint x="50" y="430" as="sourcePoint" />
            <mxPoint x="100" y="380" as="targetPoint" />
          </mxGeometry>
        </mxCell>
        <mxCell id="KPl6-Z8b2giDErf2pCn6-30" value="data (request)" style="edgeLabel;html=1;align=center;verticalAlign=middle;resizable=0;points=[];" parent="KPl6-Z8b2giDErf2pCn6-29" vertex="1" connectable="0">
          <mxGeometry x="-0.012" y="-1" relative="1" as="geometry">
            <mxPoint as="offset" />
          </mxGeometry>
        </mxCell>
        <mxCell id="KPl6-Z8b2giDErf2pCn6-31" value="" style="endArrow=classic;html=1;rounded=0;entryX=1;entryY=0.5;entryDx=0;entryDy=0;" parent="1" target="KPl6-Z8b2giDErf2pCn6-23" edge="1">
          <mxGeometry width="50" height="50" relative="1" as="geometry">
            <mxPoint x="180" y="470" as="sourcePoint" />
            <mxPoint x="230" y="420" as="targetPoint" />
          </mxGeometry>
        </mxCell>
        <mxCell id="KPl6-Z8b2giDErf2pCn6-32" value="data (reply)&amp;nbsp;" style="edgeLabel;html=1;align=center;verticalAlign=middle;resizable=0;points=[];" parent="KPl6-Z8b2giDErf2pCn6-31" vertex="1" connectable="0">
          <mxGeometry x="0.1541" y="-3" relative="1" as="geometry">
            <mxPoint as="offset" />
          </mxGeometry>
        </mxCell>
        <mxCell id="KPl6-Z8b2giDErf2pCn6-33" value="" style="endArrow=none;html=1;rounded=0;" parent="1" target="KPl6-Z8b2giDErf2pCn6-13" edge="1">
          <mxGeometry width="50" height="50" relative="1" as="geometry">
            <mxPoint x="50" y="530" as="sourcePoint" />
            <mxPoint x="100" y="480" as="targetPoint" />
          </mxGeometry>
        </mxCell>
        <mxCell id="KPl6-Z8b2giDErf2pCn6-34" value="EOF notification" style="edgeLabel;html=1;align=center;verticalAlign=middle;resizable=0;points=[];" parent="KPl6-Z8b2giDErf2pCn6-33" vertex="1" connectable="0">
          <mxGeometry x="0.1155" y="-1" relative="1" as="geometry">
            <mxPoint as="offset" />
          </mxGeometry>
        </mxCell>
        <mxCell id="KPl6-Z8b2giDErf2pCn6-35" value="" style="edgeStyle=elbowEdgeStyle;elbow=horizontal;endArrow=classic;html=1;curved=0;rounded=0;endSize=8;startSize=8;entryX=1;entryY=0.25;entryDx=0;entryDy=0;exitX=1;exitY=0.5;exitDx=0;exitDy=0;" parent="1" source="KPl6-Z8b2giDErf2pCn6-11" edge="1">
          <mxGeometry width="50" height="50" relative="1" as="geometry">
            <mxPoint x="270" y="470" as="sourcePoint" />
            <mxPoint x="270" y="417.5" as="targetPoint" />
            <Array as="points">
              <mxPoint x="300" y="440" />
            </Array>
          </mxGeometry>
        </mxCell>
        <mxCell id="KPl6-Z8b2giDErf2pCn6-36" value="" style="edgeStyle=elbowEdgeStyle;elbow=horizontal;endArrow=classic;html=1;curved=0;rounded=0;endSize=8;startSize=8;entryX=0;entryY=0.5;entryDx=0;entryDy=0;exitX=0;exitY=0.5;exitDx=0;exitDy=0;" parent="1" source="KPl6-Z8b2giDErf2pCn6-23" target="KPl6-Z8b2giDErf2pCn6-21" edge="1">
          <mxGeometry width="50" height="50" relative="1" as="geometry">
            <mxPoint x="-80" y="467.5" as="sourcePoint" />
            <mxPoint x="-80" y="420" as="targetPoint" />
            <Array as="points">
              <mxPoint x="-60" y="460" />
            </Array>
          </mxGeometry>
        </mxCell>
        <mxCell id="U-t2tcPcUnqknYB4p4qN-1" value="Client" style="text;html=1;align=center;verticalAlign=middle;whiteSpace=wrap;rounded=0;fontSize=17;" vertex="1" parent="1">
          <mxGeometry x="-25" y="290" width="60" height="30" as="geometry" />
        </mxCell>
        <mxCell id="U-t2tcPcUnqknYB4p4qN-2" value="Server" style="text;html=1;align=center;verticalAlign=middle;whiteSpace=wrap;rounded=0;fontSize=17;" vertex="1" parent="1">
          <mxGeometry x="195" y="130" width="60" height="30" as="geometry" />
        </mxCell>
      </root>
    </mxGraphModel>
  </diagram>
</mxfile>
